<?xml version="1.0" standalone="no"?>
<!DOCTYPE svg PUBLIC "-//W3C//DTD SVG 20010904//EN"
 "http://www.w3.org/TR/2001/REC-SVG-20010904/DTD/svg10.dtd">
<svg version="1.0" xmlns="http://www.w3.org/2000/svg"
 width="260.000000pt" height="260.000000pt" viewBox="0 0 260.000000 260.000000"
 preserveAspectRatio="xMidYMid meet">
<metadata>
Created by potrace 1.11, written by Peter Selinger 2001-2013
</metadata>
<g transform="translate(0.000000,260.000000) scale(0.100000,-0.100000)"
fill="#000000" stroke="none">
<path d="M1308 2235 c-2 -1 -40 -5 -86 -8 -45 -3 -86 -8 -91 -11 -4 -3 -22 -8
-40 -11 -57 -10 -154 -54 -223 -101 -136 -92 -208 -233 -202 -394 3 -75 6 -89
30 -150 69 -175 223 -285 558 -400 312 -107 382 -166 369 -310 -6 -56 -24 -91
-68 -128 -47 -38 -102 -54 -196 -57 -163 -6 -273 37 -335 131 -20 29 -41 106
-37 132 2 14 -3 25 -13 29 -25 9 -347 9 -361 0 -6 -5 -10 -14 -8 -20 2 -7 6
-35 9 -64 11 -102 68 -215 150 -297 72 -73 153 -121 268 -160 106 -36 172 -47
289 -48 178 -3 297 20 411 77 211 106 304 299 259 535 -42 215 -223 362 -599
484 -265 86 -352 152 -352 266 0 81 57 152 152 186 62 22 200 22 267 0 90 -31
154 -109 165 -203 2 -15 4 -31 5 -35 0 -5 85 -8 187 -8 l186 0 -5 63 c-12 127
-56 218 -153 314 -101 100 -232 161 -380 178 -67 8 -152 13 -156 10z"/>
</g>
</svg>
